<svg width="200" height="200" viewBox="0 0 200 200" fill="none" xmlns="http://www.w3.org/2000/svg">
<rect width="200" height="200" rx="30" fill="#3D3D3D"/>
<path d="M58.7793 162V34.0312H100.615C114.502 34.0312 124.932 36.9023 131.904 42.6445C138.936 48.3867 142.451 56.8828 142.451 68.1328C142.451 74.1094 140.752 79.4121 137.354 84.041C133.955 88.6113 129.326 92.1562 123.467 94.6758C130.381 96.6094 135.83 100.301 139.814 105.75C143.857 111.141 145.879 117.586 145.879 125.086C145.879 136.57 142.158 145.594 134.717 152.156C127.275 158.719 116.758 162 103.164 162H58.7793ZM75.6543 102.146V148.201H103.516C111.367 148.201 117.549 146.18 122.061 142.137C126.631 138.035 128.916 132.41 128.916 125.262C128.916 109.852 120.537 102.146 103.779 102.146H75.6543ZM75.6543 88.6113H101.143C108.525 88.6113 114.414 86.7656 118.809 83.0742C123.262 79.3828 125.488 74.373 125.488 68.0449C125.488 61.0137 123.438 55.916 119.336 52.752C115.234 49.5293 108.994 47.918 100.615 47.918H75.6543V88.6113Z" fill="#F2F2F2"/>
</svg>
